# xmcd
#
# Track frame offsets:
#	150
#	16464
#	31317
#	45816
#	61202
#	82158
#	98501
#	114586
#	131341
#	148116
#	163286
#	185376
#	201889
#	219039
#	238475
#	259537
#	272761
#	289506
#	307288
#	322943
#
# Disc length: 4561 seconds
#
# Revision: 1
# Processed by: cddbd v1.5.2PL0 Copyright (c) Steve Scherf et al.
# Submitted via: audiograbber 1.83.01
#
DISCID=1c11cf14
DTITLE=Various Artist - C2C - Country to Country
DYEAR=2015
DGENRE=Country
TTITLE0=Luke Bryan - I Don't Want This Night To End
TTITLE1=Lady Antebellum - Bartender
TTITLE2=Little Big Town - Girl Crush
TTITLE3=Darius Rucker - Homegrown Honey
TTITLE4=Dierks Bentley - I Hold On
TTITLE5=Kip Moore - Hey Pretty Girl
TTITLE6=Doug Seegers - Going Down To The River
TTITLE7=The Shires - Nashville Grey Skies
TTITLE8=Vince Gill - Don't Let Our Love Start Slipping Away
TTITLE9=Ward Thomas - Wayback When
TTITLE10=Lee Ann Womack - I Hope You Dance
TTITLE11=Chris Young - Tomorrow
TTITLE12=Carrie Underwood - Jesus Take The Wheel
TTITLE13=Rain Town - Just One Kiss
TTITLE14=Brad Paisley - Letter To Me
TTITLE15=Alan West - Come On Home
TTITLE16=The Band Perry - If I Die Young
TTITLE17=Zac Brown - Chicken Fried
TTITLE18=Florida Georgia Line - Cruise
TTITLE19=Martina McBride - One Night
EXTD=
EXTT0=
EXTT1=
EXTT2=
EXTT3=
EXTT4=
EXTT5=
EXTT6=
EXTT7=
EXTT8=
EXTT9=
EXTT10=
EXTT11=
EXTT12=
EXTT13=
EXTT14=
EXTT15=
EXTT16=
EXTT17=
EXTT18=
EXTT19=
PLAYORDER=
